<mxfile host="app.diagrams.net" modified="2024-02-03T14:51:01.720Z" agent="Mozilla/5.0 (Macintosh; Intel Mac OS X 10_15_7) AppleWebKit/537.36 (KHTML, like Gecko) Chrome/120.0.0.0 Safari/537.36" etag="WJ_wHAQCWFTN9zts67VN" version="23.1.1" type="device">
  <diagram name="Page-1" id="tPQs_lpIfbWK9eZjocKW">
    <mxGraphModel dx="1434" dy="906" grid="1" gridSize="10" guides="1" tooltips="1" connect="1" arrows="1" fold="1" page="1" pageScale="1" pageWidth="827" pageHeight="1169" math="0" shadow="0">
      <root>
        <mxCell id="0" />
        <mxCell id="1" parent="0" />
        <mxCell id="6sC2njDf98hvoGCdqALS-1" value="" style="rounded=1;whiteSpace=wrap;html=1;" vertex="1" parent="1">
          <mxGeometry x="308" y="135" width="120" height="60" as="geometry" />
        </mxCell>
        <mxCell id="6sC2njDf98hvoGCdqALS-2" value="" style="rounded=1;whiteSpace=wrap;html=1;" vertex="1" parent="1">
          <mxGeometry x="328" y="125" width="120" height="60" as="geometry" />
        </mxCell>
        <mxCell id="6sC2njDf98hvoGCdqALS-3" value="databases" style="text;html=1;strokeColor=none;fillColor=none;align=center;verticalAlign=middle;whiteSpace=wrap;rounded=0;" vertex="1" parent="1">
          <mxGeometry x="358" y="140" width="60" height="30" as="geometry" />
        </mxCell>
        <mxCell id="6sC2njDf98hvoGCdqALS-4" value="" style="rounded=1;whiteSpace=wrap;html=1;" vertex="1" parent="1">
          <mxGeometry x="476" y="135" width="120" height="60" as="geometry" />
        </mxCell>
        <mxCell id="6sC2njDf98hvoGCdqALS-5" value="" style="rounded=1;whiteSpace=wrap;html=1;" vertex="1" parent="1">
          <mxGeometry x="491" y="125" width="120" height="60" as="geometry" />
        </mxCell>
        <mxCell id="6sC2njDf98hvoGCdqALS-6" value="tables" style="text;html=1;strokeColor=none;fillColor=none;align=center;verticalAlign=middle;whiteSpace=wrap;rounded=0;" vertex="1" parent="1">
          <mxGeometry x="521" y="140" width="60" height="30" as="geometry" />
        </mxCell>
        <mxCell id="6sC2njDf98hvoGCdqALS-7" value="Table" style="swimlane;whiteSpace=wrap;html=1;" vertex="1" parent="1">
          <mxGeometry x="302" y="235" width="498" height="245" as="geometry" />
        </mxCell>
        <mxCell id="6sC2njDf98hvoGCdqALS-8" value="" style="rounded=1;whiteSpace=wrap;html=1;" vertex="1" parent="6sC2njDf98hvoGCdqALS-7">
          <mxGeometry x="63" y="45" width="120" height="60" as="geometry" />
        </mxCell>
        <mxCell id="6sC2njDf98hvoGCdqALS-9" value="WAL" style="text;html=1;strokeColor=none;fillColor=none;align=center;verticalAlign=middle;whiteSpace=wrap;rounded=0;" vertex="1" parent="6sC2njDf98hvoGCdqALS-7">
          <mxGeometry x="93" y="60" width="60" height="30" as="geometry" />
        </mxCell>
        <mxCell id="6sC2njDf98hvoGCdqALS-10" value="" style="rounded=1;whiteSpace=wrap;html=1;" vertex="1" parent="6sC2njDf98hvoGCdqALS-7">
          <mxGeometry x="223" y="45" width="120" height="60" as="geometry" />
        </mxCell>
        <mxCell id="6sC2njDf98hvoGCdqALS-11" value="Engine" style="text;html=1;strokeColor=none;fillColor=none;align=center;verticalAlign=middle;whiteSpace=wrap;rounded=0;" vertex="1" parent="6sC2njDf98hvoGCdqALS-7">
          <mxGeometry x="253" y="60" width="60" height="30" as="geometry" />
        </mxCell>
        <mxCell id="6sC2njDf98hvoGCdqALS-12" value="" style="rounded=1;whiteSpace=wrap;html=1;" vertex="1" parent="6sC2njDf98hvoGCdqALS-7">
          <mxGeometry x="350" y="160" width="120" height="60" as="geometry" />
        </mxCell>
        <mxCell id="6sC2njDf98hvoGCdqALS-15" value="" style="endArrow=classic;html=1;rounded=0;exitX=1;exitY=0.5;exitDx=0;exitDy=0;entryX=0;entryY=0.5;entryDx=0;entryDy=0;" edge="1" parent="6sC2njDf98hvoGCdqALS-7" source="6sC2njDf98hvoGCdqALS-8" target="6sC2njDf98hvoGCdqALS-10">
          <mxGeometry width="50" height="50" relative="1" as="geometry">
            <mxPoint x="200" y="135" as="sourcePoint" />
            <mxPoint x="250" y="85" as="targetPoint" />
          </mxGeometry>
        </mxCell>
        <mxCell id="6sC2njDf98hvoGCdqALS-17" value="" style="rounded=1;whiteSpace=wrap;html=1;" vertex="1" parent="6sC2njDf98hvoGCdqALS-7">
          <mxGeometry x="370" y="175" width="120" height="60" as="geometry" />
        </mxCell>
        <mxCell id="6sC2njDf98hvoGCdqALS-13" value="snapshots" style="text;html=1;strokeColor=none;fillColor=none;align=center;verticalAlign=middle;whiteSpace=wrap;rounded=0;" vertex="1" parent="6sC2njDf98hvoGCdqALS-7">
          <mxGeometry x="400" y="190" width="60" height="30" as="geometry" />
        </mxCell>
        <mxCell id="6sC2njDf98hvoGCdqALS-29" value="" style="rounded=0;whiteSpace=wrap;html=1;" vertex="1" parent="6sC2njDf98hvoGCdqALS-7">
          <mxGeometry x="370" y="45" width="90" height="60" as="geometry" />
        </mxCell>
        <mxCell id="6sC2njDf98hvoGCdqALS-30" value="Data on disk" style="text;html=1;strokeColor=none;fillColor=none;align=center;verticalAlign=middle;whiteSpace=wrap;rounded=0;" vertex="1" parent="6sC2njDf98hvoGCdqALS-7">
          <mxGeometry x="385" y="55" width="60" height="30" as="geometry" />
        </mxCell>
        <mxCell id="6sC2njDf98hvoGCdqALS-31" value="" style="verticalLabelPosition=bottom;sketch=0;aspect=fixed;html=1;verticalAlign=top;strokeColor=none;align=center;outlineConnect=0;shape=mxgraph.citrix.process;" vertex="1" parent="6sC2njDf98hvoGCdqALS-7">
          <mxGeometry x="351.45" y="115" width="33.55" height="40" as="geometry" />
        </mxCell>
        <mxCell id="6sC2njDf98hvoGCdqALS-32" value="periodic snapshot" style="text;html=1;strokeColor=none;fillColor=none;align=center;verticalAlign=middle;whiteSpace=wrap;rounded=0;" vertex="1" parent="6sC2njDf98hvoGCdqALS-7">
          <mxGeometry x="400" y="115" width="60" height="30" as="geometry" />
        </mxCell>
        <mxCell id="6sC2njDf98hvoGCdqALS-33" value="" style="endArrow=classic;html=1;rounded=0;entryX=0;entryY=0.5;entryDx=0;entryDy=0;exitX=1;exitY=0.5;exitDx=0;exitDy=0;" edge="1" parent="6sC2njDf98hvoGCdqALS-7" source="6sC2njDf98hvoGCdqALS-10" target="6sC2njDf98hvoGCdqALS-29">
          <mxGeometry width="50" height="50" relative="1" as="geometry">
            <mxPoint x="-30" y="185" as="sourcePoint" />
            <mxPoint x="20" y="135" as="targetPoint" />
          </mxGeometry>
        </mxCell>
        <mxCell id="6sC2njDf98hvoGCdqALS-35" value="" style="endArrow=classic;startArrow=classic;html=1;rounded=0;entryX=0;entryY=0.5;entryDx=0;entryDy=0;exitX=0.5;exitY=1;exitDx=0;exitDy=0;" edge="1" parent="6sC2njDf98hvoGCdqALS-7" source="6sC2njDf98hvoGCdqALS-8" target="6sC2njDf98hvoGCdqALS-12">
          <mxGeometry width="50" height="50" relative="1" as="geometry">
            <mxPoint x="88" y="125" as="sourcePoint" />
            <mxPoint x="138" y="75" as="targetPoint" />
          </mxGeometry>
        </mxCell>
        <mxCell id="6sC2njDf98hvoGCdqALS-36" value="" style="verticalLabelPosition=bottom;sketch=0;aspect=fixed;html=1;verticalAlign=top;strokeColor=none;align=center;outlineConnect=0;shape=mxgraph.citrix.process;" vertex="1" parent="6sC2njDf98hvoGCdqALS-7">
          <mxGeometry x="153" y="140" width="29.35" height="35" as="geometry" />
        </mxCell>
        <mxCell id="6sC2njDf98hvoGCdqALS-37" value="recovery" style="text;html=1;strokeColor=none;fillColor=none;align=center;verticalAlign=middle;whiteSpace=wrap;rounded=0;" vertex="1" parent="6sC2njDf98hvoGCdqALS-7">
          <mxGeometry x="183" y="142.5" width="60" height="30" as="geometry" />
        </mxCell>
        <mxCell id="6sC2njDf98hvoGCdqALS-14" value="" style="endArrow=classic;html=1;rounded=0;entryX=0;entryY=0.5;entryDx=0;entryDy=0;" edge="1" parent="1" target="6sC2njDf98hvoGCdqALS-8">
          <mxGeometry width="50" height="50" relative="1" as="geometry">
            <mxPoint x="242" y="310" as="sourcePoint" />
            <mxPoint x="509" y="320" as="targetPoint" />
          </mxGeometry>
        </mxCell>
        <mxCell id="6sC2njDf98hvoGCdqALS-16" value="write request" style="text;html=1;strokeColor=none;fillColor=none;align=center;verticalAlign=middle;whiteSpace=wrap;rounded=0;" vertex="1" parent="1">
          <mxGeometry x="240" y="270" width="60" height="30" as="geometry" />
        </mxCell>
        <mxCell id="6sC2njDf98hvoGCdqALS-18" value="" style="rounded=1;whiteSpace=wrap;html=1;" vertex="1" parent="1">
          <mxGeometry x="55" y="55" width="120" height="60" as="geometry" />
        </mxCell>
        <mxCell id="6sC2njDf98hvoGCdqALS-19" value="Embedded client" style="text;html=1;strokeColor=none;fillColor=none;align=center;verticalAlign=middle;whiteSpace=wrap;rounded=0;" vertex="1" parent="1">
          <mxGeometry x="85" y="72" width="60" height="30" as="geometry" />
        </mxCell>
        <mxCell id="6sC2njDf98hvoGCdqALS-20" value="" style="rounded=1;whiteSpace=wrap;html=1;" vertex="1" parent="1">
          <mxGeometry x="55" y="145" width="120" height="60" as="geometry" />
        </mxCell>
        <mxCell id="6sC2njDf98hvoGCdqALS-21" value="Http &lt;br&gt;client" style="text;html=1;strokeColor=none;fillColor=none;align=center;verticalAlign=middle;whiteSpace=wrap;rounded=0;" vertex="1" parent="1">
          <mxGeometry x="85" y="162" width="60" height="30" as="geometry" />
        </mxCell>
        <mxCell id="6sC2njDf98hvoGCdqALS-22" value="" style="rounded=1;whiteSpace=wrap;html=1;" vertex="1" parent="1">
          <mxGeometry x="55" y="235" width="120" height="60" as="geometry" />
        </mxCell>
        <mxCell id="6sC2njDf98hvoGCdqALS-23" value="Thrift&lt;br&gt;client" style="text;html=1;strokeColor=none;fillColor=none;align=center;verticalAlign=middle;whiteSpace=wrap;rounded=0;" vertex="1" parent="1">
          <mxGeometry x="85" y="252" width="60" height="30" as="geometry" />
        </mxCell>
        <mxCell id="6sC2njDf98hvoGCdqALS-25" value="Clients" style="swimlane;whiteSpace=wrap;html=1;" vertex="1" parent="1">
          <mxGeometry x="10" y="20" width="200" height="290" as="geometry" />
        </mxCell>
        <mxCell id="6sC2njDf98hvoGCdqALS-26" value="" style="endArrow=classic;html=1;rounded=0;exitX=1;exitY=0.5;exitDx=0;exitDy=0;entryX=0;entryY=0.5;entryDx=0;entryDy=0;" edge="1" parent="1" source="6sC2njDf98hvoGCdqALS-25" target="6sC2njDf98hvoGCdqALS-1">
          <mxGeometry width="50" height="50" relative="1" as="geometry">
            <mxPoint x="320" y="420" as="sourcePoint" />
            <mxPoint x="370" y="370" as="targetPoint" />
          </mxGeometry>
        </mxCell>
        <mxCell id="6sC2njDf98hvoGCdqALS-27" value="requests" style="text;html=1;strokeColor=none;fillColor=none;align=center;verticalAlign=middle;whiteSpace=wrap;rounded=0;" vertex="1" parent="1">
          <mxGeometry x="220" y="132" width="60" height="30" as="geometry" />
        </mxCell>
        <mxCell id="6sC2njDf98hvoGCdqALS-34" value="" style="endArrow=classic;html=1;rounded=0;entryX=0.5;entryY=0;entryDx=0;entryDy=0;exitX=0.5;exitY=1;exitDx=0;exitDy=0;" edge="1" parent="1" source="6sC2njDf98hvoGCdqALS-5" target="6sC2njDf98hvoGCdqALS-7">
          <mxGeometry width="50" height="50" relative="1" as="geometry">
            <mxPoint x="390" y="360" as="sourcePoint" />
            <mxPoint x="440" y="310" as="targetPoint" />
          </mxGeometry>
        </mxCell>
      </root>
    </mxGraphModel>
  </diagram>
</mxfile>
